{
  "accessors": [
    {
      "bufferView": 2,
      "componentType": 5126,
      "count": 4045,
      "max": [
        0.6048839092254639,
        0.2412509173154831,
        0.534514307975769
      ],
      "min": [
        -0.7040271162986755,
        -0.061203159391880035,
        -0.540462851524353
      ],
      "type": "VEC3"
    },
    {
      "bufferView": 2,
      "byteOffset": 48540,
      "componentType": 5126,
      "count": 4045,
      "max": [
        0.9971903562545776,
        0.9999979734420776,
        0.9919078946113586
      ],
      "min": [
        -0.9339506030082703,
        -0.999998927116394,
        -0.9957947731018066
      ],
      "type": "VEC3"
    },
    {
      "bufferView": 3,
      "componentType": 5126,
      "count": 4045,
      "max": [
        0.9985933303833008,
        0.9848347306251526,
        0.9983586072921753,
        -1.0
      ],
      "min": [
        -0.482008159160614,
        -0.9900053143501282,
        -0.6209128499031067,
        -1.0
      ],
      "type": "VEC4"
    },
    {
      "bufferView": 1,
      "componentType": 5126,
      "count": 4045,
      "max": [
        0.9998708963394165,
        0.9998709559440613
      ],
      "min": [
        0.00012905348557978868,
        0.15421098470687866
      ],
      "type": "VEC2"
    },
    {
      "bufferView": 1,
      "byteOffset": 32360,
      "componentType": 5126,
      "count": 4045,
      "max": [
        0.9998708963394165,
        0.9998709559440613
      ],
      "min": [
        0.00012905348557978868,
        0.15421098470687866
      ],
      "type": "VEC2"
    },
    {
      "bufferView": 1,
      "byteOffset": 64720,
      "componentType": 5126,
      "count": 4045,
      "max": [
        0.9998708963394165,
        0.9998709559440613
      ],
      "min": [
        0.00012905348557978868,
        0.15421098470687866
      ],
      "type": "VEC2"
    },
    {
      "bufferView": 1,
      "byteOffset": 97080,
      "componentType": 5126,
      "count": 4045,
      "max": [
        0.9998708963394165,
        0.9998709559440613
      ],
      "min": [
        0.00012905348557978868,
        0.15421098470687866
      ],
      "type": "VEC2"
    },
    {
      "bufferView": 0,
      "componentType": 5125,
      "count": 19488,
      "type": "SCALAR"
    }
  ],
  "asset": {
    "extras": {
      "author": "PaShok3D (https://sketchfab.com/PaShok3D)",
      "license": "CC-BY-4.0 (http://creativecommons.org/licenses/by/4.0/)",
      "source": "https://sketchfab.com/3d-models/chicken-breast-5bac86a4617945cd98ead9e1d23ead36",
      "title": "Chicken breast"
    },
    "generator": "Sketchfab-15.33.0",
    "version": "2.0"
  },
  "bufferViews": [
    {
      "buffer": 0,
      "byteLength": 77952,
      "name": "floatBufferViews",
      "target": 34963
    },
    {
      "buffer": 0,
      "byteLength": 129440,
      "byteOffset": 77952,
      "byteStride": 8,
      "name": "floatBufferViews",
      "target": 34962
    },
    {
      "buffer": 0,
      "byteLength": 97080,
      "byteOffset": 207392,
      "byteStride": 12,
      "name": "floatBufferViews",
      "target": 34962
    },
    {
      "buffer": 0,
      "byteLength": 64720,
      "byteOffset": 304472,
      "byteStride": 16,
      "name": "floatBufferViews",
      "target": 34962
    }
  ],
  "buffers": [
    {
      "byteLength": 369192,
      "uri": "scene.bin"
    }
  ],
  "extensionsUsed": [
    "KHR_materials_specular"
  ],
  "images": [
    {
      "uri": "textures/chicken_breast_baseColor.png"
    },
    {
      "uri": "textures/chicken_breast_metallicRoughness.png"
    },
    {
      "uri": "textures/chicken_breast_normal.png"
    },
    {
      "uri": "textures/chicken_breast_specularf0.png"
    }
  ],
  "materials": [
    {
      "doubleSided": true,
      "extensions": {
        "KHR_materials_specular": {
          "specularColorFactor": [
            1.0,
            1.0,
            1.0
          ],
          "specularFactor": 1.0,
          "specularTexture": {
            "index": 3
          }
        }
      },
      "name": "chicken_breast",
      "normalTexture": {
        "index": 2
      },
      "pbrMetallicRoughness": {
        "baseColorTexture": {
          "index": 0
        },
        "metallicFactor": 0.0,
        "metallicRoughnessTexture": {
          "index": 1
        }
      }
    }
  ],
  "meshes": [
    {
      "name": "Object_0",
      "primitives": [
        {
          "attributes": {
            "NORMAL": 1,
            "POSITION": 0,
            "TANGENT": 2,
            "TEXCOORD_0": 3,
            "TEXCOORD_1": 4,
            "TEXCOORD_2": 5,
            "TEXCOORD_3": 6
          },
          "indices": 7,
          "material": 0,
          "mode": 4
        }
      ]
    }
  ],
  "nodes": [
    {
      "children": [
        1
      ],
      "matrix": [
        1.0,
        0.0,
        0.0,
        0.0,
        0.0,
        2.220446049250313e-16,
        -1.0,
        0.0,
        0.0,
        1.0,
        2.220446049250313e-16,
        0.0,
        0.0,
        0.0,
        0.0,
        1.0
      ],
      "name": "Sketchfab_model"
    },
    {
      "children": [
        2
      ],
      "name": "root"
    },
    {
      "children": [
        3
      ],
      "matrix": [
        1.0,
        0.0,
        0.0,
        0.0,
        0.0,
        2.220446049250313e-16,
        1.0,
        0.0,
        0.0,
        -1.0,
        2.220446049250313e-16,
        0.0,
        0.0,
        0.0,
        0.0,
        1.0
      ],
      "name": "GLTF_SceneRootNode"
    },
    {
      "children": [
        4
      ],
      "name": "Plane.001_0"
    },
    {
      "mesh": 0,
      "name": "Object_4"
    }
  ],
  "samplers": [
    {
      "magFilter": 9729,
      "minFilter": 9987,
      "wrapS": 10497,
      "wrapT": 10497
    }
  ],
  "scene": 0,
  "scenes": [
    {
      "name": "Sketchfab_Scene",
      "nodes": [
        0
      ]
    }
  ],
  "textures": [
    {
      "sampler": 0,
      "source": 0
    },
    {
      "sampler": 0,
      "source": 1
    },
    {
      "sampler": 0,
      "source": 2
    },
    {
      "sampler": 0,
      "source": 3
    }
  ]
}
